<svg width="30" height="30" viewBox="0 0 30 30" fill="none" xmlns="http://www.w3.org/2000/svg">
<path d="M10 17.5H20V16.9062C20 16.0312 19.5573 15.3542 18.6719 14.875C17.7865 14.3958 16.5625 14.1562 15 14.1562C13.4375 14.1562 12.2135 14.3958 11.3281 14.875C10.4427 15.3542 10 16.0312 10 16.9062V17.5ZM15 12.0938C15.6359 12.0938 16.1803 11.8673 16.6332 11.4145C17.0861 10.9616 17.3125 10.4172 17.3125 9.78125C17.3125 9.14531 17.0861 8.60091 16.6332 8.14803C16.1803 7.69518 15.6359 7.46875 15 7.46875C14.3641 7.46875 13.8197 7.69518 13.3668 8.14803C12.9139 8.60091 12.6875 9.14531 12.6875 9.78125C12.6875 10.4172 12.9139 10.9616 13.3668 11.4145C13.8197 11.8673 14.3641 12.0938 15 12.0938ZM2.5 27.5V4.375C2.5 3.875 2.6875 3.4375 3.0625 3.0625C3.4375 2.6875 3.875 2.5 4.375 2.5H25.625C26.125 2.5 26.5625 2.6875 26.9375 3.0625C27.3125 3.4375 27.5 3.875 27.5 4.375V20.625C27.5 21.125 27.3125 21.5625 26.9375 21.9375C26.5625 22.3125 26.125 22.5 25.625 22.5H7.5L2.5 27.5ZM6.6875 20.625H25.625V4.375H4.375V23.125L6.6875 20.625Z" fill="white"/>
</svg>
