<svg width="78" height="90" viewBox="0 0 78 90" fill="none" xmlns="http://www.w3.org/2000/svg">
<path d="M9.72223 78.75V26.7188H23.0903V11.25H54.6875V42.1875H68.0556V78.75H43.1829V63.2812H34.5949V78.75H9.72223ZM14.5833 73.125H23.0903V63.2812H14.5833V73.125ZM14.5833 57.6562H23.0903V47.8125H14.5833V57.6562ZM14.5833 42.1875H23.0903V32.3438H14.5833V42.1875ZM27.9514 57.6562H36.4583V47.8125H27.9514V57.6562ZM27.9514 42.1875H36.4583V32.3438H27.9514V42.1875ZM27.9514 26.7188H36.4583V16.875H27.9514V26.7188ZM41.3195 57.6562H49.8264V47.8125H41.3195V57.6562ZM41.3195 42.1875H49.8264V32.3438H41.3195V42.1875ZM41.3195 26.7188H49.8264V16.875H41.3195V26.7188ZM54.6875 73.125H63.1945V63.2812H54.6875V73.125ZM54.6875 57.6562H63.1945V47.8125H54.6875V57.6562Z" fill="white"/>
</svg>
