<svg width="30" height="30" viewBox="0 0 30 30" fill="none" xmlns="http://www.w3.org/2000/svg">
<path d="M14.0625 25.1875V15.5312L5.625 10.6562V20.3125L14.0625 25.1875ZM15.9375 25.1875L24.375 20.3125V10.625L15.9375 15.5312V25.1875ZM14.0625 27.3438L4.6875 21.9375C4.39583 21.7708 4.16667 21.5417 4 21.25C3.83333 20.9583 3.75 20.6458 3.75 20.3125V9.6875C3.75 9.35417 3.83333 9.04167 4 8.75C4.16667 8.45833 4.39583 8.22917 4.6875 8.0625L14.0625 2.65625C14.3542 2.48958 14.6667 2.40625 15 2.40625C15.3333 2.40625 15.6458 2.48958 15.9375 2.65625L25.3125 8.0625C25.6042 8.22917 25.8333 8.45833 26 8.75C26.1667 9.04167 26.25 9.35417 26.25 9.6875V20.3125C26.25 20.6458 26.1667 20.9583 26 21.25C25.8333 21.5417 25.6042 21.7708 25.3125 21.9375L15.9375 27.3438C15.6458 27.5104 15.3333 27.5938 15 27.5938C14.6667 27.5938 14.3542 27.5104 14.0625 27.3438ZM20.125 10.9375L23.3125 9.09375L15 4.28125L11.8125 6.125L20.125 10.9375ZM15 13.9375L18.25 12.0312L9.90625 7.21875L6.65625 9.09375L15 13.9375Z" fill="white"/>
</svg>
