<svg width="30" height="30" viewBox="0 0 30 30" fill="none" xmlns="http://www.w3.org/2000/svg">
<path d="M10 23.75C7.5625 23.75 5.49479 22.901 3.79688 21.2031C2.09896 19.5052 1.25 17.4375 1.25 15C1.25 12.5625 2.09896 10.4948 3.79688 8.79688C5.49479 7.09896 7.5625 6.25 10 6.25H20C22.4375 6.25 24.5052 7.09896 26.2031 8.79688C27.901 10.4948 28.75 12.5625 28.75 15C28.75 17.4375 27.901 19.5052 26.2031 21.2031C24.5052 22.901 22.4375 23.75 20 23.75H10ZM10 21.875H20C21.9021 21.875 23.5234 21.2053 24.8641 19.866C26.2047 18.5267 26.875 16.9069 26.875 15.0066C26.875 13.1064 26.2047 11.4844 24.8641 10.1406C23.5234 8.79688 21.9021 8.125 20 8.125H10C8.09792 8.125 6.47656 8.79467 5.13594 10.134C3.79531 11.4733 3.125 13.0931 3.125 14.9934C3.125 16.8936 3.79531 18.5156 5.13594 19.8594C6.47656 21.2031 8.09792 21.875 10 21.875ZM10.625 18.4375H11.875V15.625H14.6875V14.375H11.875V11.5625H10.625V14.375H7.8125V15.625H10.625V18.4375ZM19.6875 18.4375H20.9375V11.5625H17.8125V12.8125H19.6875V18.4375Z" fill="white"/>
</svg>
