<svg width="30" height="30" viewBox="0 0 30 30" fill="none" xmlns="http://www.w3.org/2000/svg">
<path d="M1.25 26.25L15 2.5L28.75 26.25H1.25ZM4.5 24.375H25.5L15 6.25L4.5 24.375ZM15.1305 22.5938C15.3977 22.5938 15.6198 22.5034 15.7969 22.3227C15.974 22.1419 16.0625 21.9179 16.0625 21.6508C16.0625 21.3836 15.9721 21.1615 15.7914 20.9844C15.6107 20.8073 15.3867 20.7188 15.1195 20.7188C14.8523 20.7188 14.6302 20.8091 14.4531 20.9898C14.276 21.1706 14.1875 21.3946 14.1875 21.6617C14.1875 21.9289 14.2779 22.151 14.4586 22.3281C14.6393 22.5052 14.8633 22.5938 15.1305 22.5938ZM14.1875 19.125H16.0625V12.125H14.1875V19.125Z" fill="white"/>
</svg>
